<?xml version="1.0" standalone="no"?>
<!DOCTYPE svg PUBLIC "-//W3C//DTD SVG 20010904//EN"
 "http://www.w3.org/TR/2001/REC-SVG-20010904/DTD/svg10.dtd">
<svg version="1.0" xmlns="http://www.w3.org/2000/svg"
 width="683.000000pt" height="468.000000pt" viewBox="0 0 683.000000 468.000000"
 preserveAspectRatio="xMidYMid meet">

<g transform="translate(0.000000,468.000000) scale(0.100000,-0.100000)"
fill="#000000" stroke="none">
<path d="M1480 4665 c-7 -8 -31 -162 -55 -355 -23 -188 -44 -343 -46 -345 -2
-2 -78 37 -169 86 -185 100 -223 109 -259 63 -11 -14 -22 -44 -25 -67 -28
-215 -66 -529 -66 -541 0 -14 -16 -16 -103 -16 -56 0 -118 -4 -136 -10 -43
-12 -97 -64 -111 -104 -11 -36 -36 -187 -85 -521 -19 -132 -42 -283 -50 -335
-8 -52 -26 -169 -40 -260 -42 -277 -104 -678 -125 -800 -25 -150 -105 -650
-136 -858 -30 -197 -25 -228 37 -269 45 -29 6 -30 386 11 667 73 1019 96 1613
102 l495 5 69 -81 c112 -131 258 -215 461 -266 97 -24 129 -27 265 -27 212 0
342 31 525 126 90 47 120 70 221 174 l71 73 394 -1 c449 -2 672 -10 1059 -35
188 -12 782 -75 953 -101 53 -8 123 21 142 57 21 40 19 85 -10 262 -13 84 -43
268 -65 408 -22 140 -59 365 -80 500 -22 135 -47 290 -55 345 -9 55 -20 125
-25 155 -5 30 -25 161 -45 290 -50 335 -62 413 -95 615 -16 99 -36 230 -46
290 -33 218 -70 255 -258 255 l-105 0 -5 33 c-3 17 -20 138 -36 267 -41 312
-38 296 -63 326 -31 36 -79 36 -135 0 -75 -47 -282 -154 -286 -148 -2 4 -6 30
-10 57 -4 28 -11 79 -16 115 -6 36 -21 160 -35 275 -14 116 -31 223 -37 238
l-11 29 -181 -4 c-208 -5 -310 -24 -572 -109 -340 -110 -700 -332 -910 -562
-84 -93 -183 -232 -225 -318 -19 -38 -37 -69 -41 -69 -4 0 -21 27 -38 61 -35
69 -79 133 -165 239 -300 373 -783 640 -1339 740 -139 25 -377 28 -396 5z
m285 -175 c113 -21 365 -90 463 -126 290 -108 520 -252 717 -449 185 -184 279
-328 334 -510 21 -69 21 -81 24 -1323 l2 -1254 -25 34 c-47 64 -206 221 -285
283 -167 130 -380 240 -634 326 -221 75 -413 103 -701 103 -294 0 -501 -37
-722 -130 -60 -26 -111 -45 -113 -42 -2 2 12 125 30 273 19 149 46 371 60 495
14 124 37 311 50 415 14 105 36 287 50 405 56 470 107 875 111 880 3 2 57 -22
120 -53 110 -55 115 -59 110 -85 -2 -15 -8 -54 -11 -87 -9 -85 -94 -738 -105
-810 -20 -120 -119 -843 -131 -952 -7 -62 -10 -115 -8 -117 2 -3 35 4 72 14
210 58 516 83 753 61 215 -21 471 -95 690 -202 248 -120 504 -314 634 -479 48
-62 47 -48 -5 67 -141 307 -501 582 -920 702 -231 66 -310 76 -620 75 -156 0
-301 -5 -327 -11 -26 -6 -49 -9 -51 -7 -4 4 3 58 33 284 11 80 27 195 35 255
8 61 51 371 95 690 45 319 98 724 120 900 53 427 47 396 73 390 12 -2 49 -9
82 -15z m3436 -212 c16 -123 40 -302 54 -398 13 -96 45 -328 70 -515 25 -187
66 -479 90 -650 46 -323 95 -692 95 -717 0 -12 -10 -13 -57 -6 -118 17 -387
26 -517 17 -452 -31 -822 -188 -1110 -468 -136 -133 -212 -241 -267 -383 l-20
-53 23 28 c177 213 331 338 573 469 192 104 370 170 584 215 117 25 144 27
371 27 263 1 397 -13 567 -59 81 -21 83 -21 83 -2 0 34 -100 776 -205 1522
-25 171 -46 343 -47 383 l-3 74 110 59 c61 32 112 59 115 59 3 0 13 -64 22
-142 49 -424 132 -1106 153 -1263 14 -99 36 -279 50 -400 13 -121 31 -274 40
-340 32 -255 41 -335 35 -335 -3 0 -27 11 -54 25 -92 47 -295 106 -435 127
-103 15 -188 21 -351 21 -359 2 -576 -38 -875 -160 -303 -123 -522 -280 -723
-518 l-42 -50 3 1260 2 1260 29 75 c57 150 160 311 285 445 221 238 563 436
934 539 140 40 373 87 385 80 2 -1 17 -103 33 -226z m-4361 -1004 c0 -22 -72
-589 -80 -626 -5 -25 -21 -142 -35 -260 -29 -246 -51 -378 -64 -391 -5 -5 -12
20 -18 65 l-8 73 -23 -150 c-33 -216 -30 -209 -77 -216 -22 -4 -41 -6 -42 -5
-2 1 19 143 142 987 41 284 75 519 75 523 0 3 29 6 65 6 36 0 65 -3 65 -6z
m5285 -46 c4 -29 20 -138 36 -243 64 -411 179 -1183 179 -1204 0 -6 -18 -11
-40 -11 -37 0 -40 2 -40 28 0 53 -32 75 -40 27 -13 -76 -28 -15 -74 308 -76
538 -146 1071 -146 1121 0 25 2 26 59 26 l59 0 7 -52z m152 -1471 c3 -4 -8 -7
-25 -7 -18 0 -32 -5 -32 -11 0 -5 -4 -7 -10 -4 -5 3 -10 12 -10 19 0 14 63 16
77 3z m-4227 -425 c291 -52 546 -167 776 -350 28 -23 28 -23 4 -16 -14 3 -50
18 -80 32 -30 15 -64 25 -75 24 -15 -2 -17 -1 -6 6 10 7 4 13 -25 23 -22 8
-44 14 -50 14 -6 0 -22 8 -37 18 -14 9 -34 17 -44 17 -10 0 24 -23 76 -50 73
-39 97 -48 104 -38 6 9 7 8 4 -4 -4 -12 10 -27 49 -54 30 -20 54 -41 54 -45 0
-12 -53 6 -112 38 -68 38 -91 46 -82 31 5 -7 0 -9 -14 -6 -12 4 -22 5 -22 3 0
-2 61 -34 136 -70 74 -37 133 -69 131 -72 -3 -2 -23 5 -44 16 -112 60 -462
174 -635 206 -131 24 -319 43 -498 50 -188 8 -377 -3 -739 -44 -132 -15 -241
-24 -241 -20 0 18 283 171 402 218 94 37 213 68 332 86 136 21 486 13 636 -13z
m3281 18 c275 -27 497 -101 771 -259 89 -51 91 -63 8 -50 -98 15 -412 48 -560
59 -549 38 -985 -30 -1477 -230 -13 -5 -23 -7 -23 -4 0 3 55 32 123 64 67 33
112 57 100 54 -35 -8 -27 10 12 31 19 11 33 21 31 23 -2 2 -70 -28 -152 -67
-81 -39 -149 -71 -151 -71 -13 0 15 24 75 63 37 24 79 58 94 75 24 27 25 30 8
35 -13 3 -17 0 -13 -9 7 -18 -5 -18 -23 1 -9 8 -11 15 -5 15 6 0 11 7 11 17 0
9 3 14 6 10 3 -3 15 4 26 15 34 34 237 125 349 156 94 27 300 67 389 75 80 8
305 6 401 -3z m-1245 -320 c0 -11 -5 -20 -11 -21 -5 0 -20 -2 -32 -3 -13 -2
-23 -2 -23 0 0 1 57 40 65 44 1 0 1 -9 1 -20z m-2402 -209 c17 -7 26 -7 30 2
3 9 7 8 15 -3 9 -12 13 -12 19 -3 6 10 49 12 182 7 96 -3 182 -10 191 -14 9
-5 25 -7 36 -4 24 7 203 -19 283 -40 30 -8 58 -12 61 -10 4 2 5 -5 2 -16 -4
-14 0 -20 10 -20 8 0 22 -3 31 -6 11 -4 16 -1 16 10 0 21 16 21 24 0 4 -10 14
-14 26 -11 12 3 18 1 14 -5 -4 -7 -29 -8 -63 -5 -31 4 -62 3 -69 -2 -7 -4 41
-7 107 -7 65 1 117 -2 115 -5 -2 -3 -236 -9 -521 -12 -285 -4 -567 -11 -628
-16 -174 -16 -309 -22 -302 -15 4 4 51 9 104 11 103 5 140 13 59 13 l-48 0 5
60 c3 46 1 60 -9 60 -9 0 -14 -11 -14 -30 0 -40 -17 -38 -28 3 l-8 32 43 3
c24 2 41 7 38 13 -9 14 3 11 31 -7 23 -15 26 -15 43 0 9 9 28 16 42 15 22 0
23 -1 4 -10 -14 -6 -2 -7 35 -3 30 3 62 10 70 15 19 11 24 11 54 0z m3676 -5
c102 -7 160 -14 130 -15 l-55 -3 45 -20 c25 -12 39 -23 33 -25 -15 -5 -18 -79
-4 -87 4 -3 38 -8 75 -10 37 -3 71 -8 76 -11 4 -3 11 1 13 7 4 10 8 10 14 1 4
-6 22 -14 38 -16 33 -6 -2 -4 -405 19 -174 10 -459 16 -776 17 -276 1 -497 5
-490 9 21 14 117 39 126 33 6 -3 10 -2 10 4 0 11 225 64 348 82 206 29 526 35
822 15z m-4055 -26 c3 -5 1 -10 -4 -10 -6 0 -11 5 -11 10 0 6 2 10 4 10 3 0 8
-4 11 -10z m4355 -70 c0 -5 -18 -10 -40 -10 -22 0 -40 5 -40 10 0 6 18 10 40
10 22 0 40 -4 40 -10z m-4420 -74 c0 -3 -4 -8 -10 -11 -5 -3 -10 -1 -10 4 0 6
5 11 10 11 6 0 10 -2 10 -4z m2470 -138 c47 -28 95 -59 107 -69 l23 -17 -23
-14 c-48 -31 -148 -69 -233 -89 -124 -30 -309 -23 -438 15 -81 24 -169 66
-181 86 -5 8 97 75 180 119 37 19 56 21 260 21 l221 0 84 -52z"/>
<path d="M1668 2413 c6 -2 18 -2 25 0 6 3 1 5 -13 5 -14 0 -19 -2 -12 -5z"/>
<path d="M1783 2413 c43 -2 110 -2 150 0 40 1 5 3 -78 3 -82 0 -115 -2 -72 -3z"/>
<path d="M2038 2403 c6 -2 18 -2 25 0 6 3 1 5 -13 5 -14 0 -19 -2 -12 -5z"/>
<path d="M1556 2381 c-14 -16 -36 -72 -36 -93 0 -5 9 -8 21 -8 11 0 18 3 16 8
-3 4 76 6 176 4 100 -2 179 -1 176 2 -4 5 -260 16 -356 16 -7 0 -13 9 -13 20
0 11 5 20 10 20 6 0 10 7 10 15 0 7 8 19 18 24 9 6 12 11 6 11 -6 0 -18 -8
-28 -19z"/>
<path d="M2148 2383 c6 -2 18 -2 25 0 6 3 1 5 -13 5 -14 0 -19 -2 -12 -5z"/>
<path d="M2198 2373 c7 -3 16 -2 19 1 4 3 -2 6 -13 5 -11 0 -14 -3 -6 -6z"/>
<path d="M2238 2363 c7 -3 16 -2 19 1 4 3 -2 6 -13 5 -11 0 -14 -3 -6 -6z"/>
<path d="M2362 2321 c-9 -5 -4 -8 15 -7 15 0 39 -3 53 -7 19 -5 18 -4 -5 8
-35 17 -45 18 -63 6z"/>
<path d="M2457 2293 c-3 -5 2 -9 11 -9 9 0 28 -4 42 -8 17 -5 20 -4 10 2 -25
16 -58 23 -63 15z"/>
<path d="M1933 2283 c9 -2 25 -2 35 0 9 3 1 5 -18 5 -19 0 -27 -2 -17 -5z"/>
<path d="M1998 2273 c6 -2 18 -2 25 0 6 3 1 5 -13 5 -14 0 -19 -2 -12 -5z"/>
<path d="M2048 2263 c6 -2 18 -2 25 0 6 3 1 5 -13 5 -14 0 -19 -2 -12 -5z"/>
<path d="M2543 2255 c0 -8 4 -12 8 -9 8 5 79 -21 79 -29 0 -2 -11 -2 -25 1
-18 3 -25 0 -25 -12 0 -9 -8 -16 -20 -16 -11 0 -20 5 -20 10 0 6 -7 10 -15 10
-8 0 -15 -4 -15 -8 0 -18 -50 -33 -71 -21 -11 5 -39 9 -62 7 -42 -3 -41 -3 58
-43 55 -22 106 -39 112 -39 7 1 10 -3 6 -9 -4 -6 0 -8 11 -4 9 4 15 3 12 -1
-3 -5 21 -21 52 -36 95 -46 221 -126 329 -207 l102 -77 5 31 c18 122 22 110
-45 171 -77 72 -176 139 -191 130 -6 -4 -8 -3 -5 3 7 11 -80 67 -200 127 -83
41 -80 40 -80 21z m72 -55 c3 -5 1 -10 -4 -10 -6 0 -11 5 -11 10 0 6 2 10 4
10 3 0 8 -4 11 -10z"/>
<path d="M2091 2256 c2 -2 18 -6 34 -10 22 -5 26 -4 15 4 -14 9 -59 15 -49 6z"/>
<path d="M2196 2231 c10 -11 72 -27 63 -17 -4 4 -21 11 -39 16 -20 6 -30 6
-24 1z"/>
<path d="M2290 2200 c8 -5 20 -10 25 -10 6 0 3 5 -5 10 -8 5 -19 10 -25 10 -5
0 -3 -5 5 -10z"/>
<path d="M4755 2409 c-67 -10 -102 -22 -40 -14 22 3 135 8 250 11 116 3 217 7
225 8 35 8 -380 3 -435 -5z"/>
<path d="M5275 2380 c10 -11 20 -20 23 -20 3 0 -3 9 -13 20 -10 11 -20 20 -23
20 -3 0 3 -9 13 -20z"/>
<path d="M4648 2383 c7 -3 16 -2 19 1 4 3 -2 6 -13 5 -11 0 -14 -3 -6 -6z"/>
<path d="M4480 2341 c-110 -36 -191 -71 -130 -56 19 5 22 4 10 -4 -8 -6 -23
-8 -32 -5 -22 6 -220 -89 -320 -155 -74 -48 -244 -188 -242 -200 6 -64 18
-131 24 -131 4 0 51 33 105 74 161 122 444 268 648 335 53 18 97 37 97 42 0
12 -27 12 -35 0 -3 -6 -23 -9 -45 -8 -31 1 -40 5 -40 19 0 21 -15 24 -24 6 -5
-10 -7 -10 -12 0 -3 6 -19 12 -35 12 -16 0 -29 4 -29 9 0 5 -10 7 -22 4 -23
-5 -23 -5 1 13 13 9 37 17 53 17 16 0 24 3 18 7 -6 4 28 19 77 33 48 14 79 26
68 26 -11 0 -72 -17 -135 -38z"/>
<path d="M5290 2340 c0 -5 5 -10 12 -10 7 0 8 -3 3 -9 -6 -5 -48 -11 -95 -15
-122 -8 -124 -9 -30 -15 50 -4 91 -2 99 4 11 7 13 7 7 -2 -5 -9 0 -13 13 -13
21 0 27 22 15 54 -7 18 -24 22 -24 6z"/>
<path d="M4826 2295 c4 -9 0 -15 -9 -15 -8 0 -29 -3 -46 -6 -24 -5 -31 -3 -31
10 0 9 -4 16 -10 16 -15 0 -12 -30 3 -36 7 -2 53 2 101 11 49 8 125 16 170 16
l81 2 -60 7 c-33 4 -92 8 -132 9 -61 1 -71 -1 -67 -14z"/>
<path d="M4664 2263 c15 -4 16 -7 5 -14 -11 -7 -9 -9 6 -9 18 0 57 18 45 21
-21 4 -71 6 -56 2z"/>
<path d="M6222 1985 c0 -16 2 -22 5 -12 2 9 2 23 0 30 -3 6 -5 -1 -5 -18z"/>
<path d="M6227 1930 c-3 -11 -1 -20 4 -20 5 0 9 9 9 20 0 11 -2 20 -4 20 -2 0
-6 -9 -9 -20z"/>
<path d="M6201 1824 c0 -11 3 -14 6 -6 3 7 2 16 -1 19 -3 4 -6 -2 -5 -13z"/>
<path d="M4570 1200 c-8 -5 -10 -10 -5 -10 6 0 17 5 25 10 8 5 11 10 5 10 -5
0 -17 -5 -25 -10z"/>
<path d="M4450 1160 c-8 -5 -10 -10 -5 -10 6 0 17 5 25 10 8 5 11 10 5 10 -5
0 -17 -5 -25 -10z"/>
<path d="M4380 1130 c-19 -11 -30 -19 -25 -19 6 0 26 8 45 19 19 11 31 19 25
19 -5 0 -26 -8 -45 -19z"/>
<path d="M4260 1070 c-9 -6 -10 -10 -3 -10 6 0 15 5 18 10 8 12 4 12 -15 0z"/>
<path d="M1563 673 c9 -2 23 -2 30 0 6 3 -1 5 -18 5 -16 0 -22 -2 -12 -5z"/>
<path d="M4528 693 c12 -2 30 -2 40 0 9 3 -1 5 -23 4 -22 0 -30 -2 -17 -4z"/>
<path d="M5083 683 c15 -2 39 -2 55 0 15 2 2 4 -28 4 -30 0 -43 -2 -27 -4z"/>
<path d="M5308 673 c6 -2 18 -2 25 0 6 3 1 5 -13 5 -14 0 -19 -2 -12 -5z"/>
</g>
</svg>
